<svg width="1490" height="1373" viewBox="0 0 1490 1373" fill="none" xmlns="http://www.w3.org/2000/svg">
<g filter="url(#filter0_f_1_11)">
<path d="M25 962.5V25H1465V1234.5L1450.57 1220.5C1426.19 1157 1352.05 1068.5 1327.67 1157C1327.67 1157 1278.41 1348 1193.82 1348C1147.15 1348 1143.76 1317.4 1098.78 1139C1085.84 1095.5 1014.19 920 964.931 1029.5C964.931 1029.5 915.67 1157 848.995 1157C782.319 1157 775.537 1096.5 729.077 1008.5C710.335 973 657.326 923.3 595.228 1008.5C533.13 1093.7 539.001 1319.5 415.601 1319.5C320.563 1319.5 306.631 1157 278.766 1096.5C250.902 1036 173.08 1028.6 130.487 1139C95.3248 1219.17 25 1296.1 25 962.5Z" fill="#FDE8D9"/>
<path d="M25 962.5V25H1465V1234.5L1450.57 1220.5C1426.19 1157 1352.05 1068.5 1327.67 1157C1327.67 1157 1278.41 1348 1193.82 1348C1147.15 1348 1143.76 1317.4 1098.78 1139C1085.84 1095.5 1014.19 920 964.931 1029.5C964.931 1029.5 915.67 1157 848.995 1157C782.319 1157 775.537 1096.5 729.077 1008.5C710.335 973 657.326 923.3 595.228 1008.5C533.13 1093.7 539.001 1319.5 415.601 1319.5C320.563 1319.5 306.631 1157 278.766 1096.5C250.902 1036 173.08 1028.6 130.487 1139C95.3248 1219.17 25 1296.1 25 962.5Z" stroke="#D9D9D9"/>
</g>
<defs>
<filter id="filter0_f_1_11" x="0.4" y="0.4" width="1489.2" height="1372.2" filterUnits="userSpaceOnUse" color-interpolation-filters="sRGB">
<feFlood flood-opacity="0" result="BackgroundImageFix"/>
<feBlend mode="normal" in="SourceGraphic" in2="BackgroundImageFix" result="shape"/>
<feGaussianBlur stdDeviation="12.3" result="effect1_foregroundBlur_1_11"/>
</filter>
</defs>
</svg>
